<svg width="233" height="261" viewBox="0 0 233 261" fill="none" xmlns="http://www.w3.org/2000/svg">
<path d="M36 235.162L40.4265 234.697C40.6595 236.209 41.2419 237.257 42.0573 237.955C42.8727 238.653 43.9211 239.002 45.319 239.002C46.7168 239.002 47.8817 238.653 48.5806 238.071C49.2795 237.489 49.629 236.791 49.629 235.86C49.629 235.278 49.5125 234.929 49.163 234.58C48.8136 234.231 48.3476 233.882 47.5322 233.649C46.9498 233.417 45.7849 233.184 43.9211 232.719C41.4749 232.137 39.8441 231.439 38.9122 230.508C37.5143 229.228 36.8154 227.832 36.8154 226.086C36.8154 224.923 37.1649 223.875 37.7473 222.945C38.4462 221.897 39.2616 221.199 40.543 220.617C41.8244 220.152 43.2222 219.919 44.853 219.919C47.6487 219.919 49.7455 220.501 51.1433 221.781C52.5412 222.945 53.2401 224.574 53.3566 226.668L48.9301 226.901C48.6971 225.737 48.3476 224.923 47.6487 224.457C47.0663 223.992 46.1344 223.643 44.853 223.643C43.5717 223.643 42.5233 223.875 41.8244 224.457C41.3584 224.806 41.1254 225.272 41.1254 225.854C41.1254 226.319 41.3584 226.784 41.8244 227.25C42.4068 227.715 43.6882 228.181 45.9014 228.762C48.1147 229.228 49.629 229.81 50.6774 230.391C51.7258 230.973 52.5412 231.671 53.1236 232.602C53.706 233.533 54.0555 234.697 54.0555 236.093C54.0555 237.373 53.706 238.536 53.0071 239.7C52.3082 240.864 51.2598 241.678 49.9785 242.26C48.6971 242.725 47.0663 243.074 45.2025 243.074C42.4068 243.074 40.31 242.376 38.7957 241.096C37.2814 239.816 36.3495 237.838 36.1165 235.395H36V235.162Z" fill="#00793F"/>
<path fill-rule="evenodd" clip-rule="evenodd" d="M60.9283 231.206L57.0842 230.508C57.5501 228.995 58.2491 227.832 59.2974 227.017C60.3458 226.319 61.9766 225.854 63.9569 225.854C65.8207 225.854 67.3351 226.086 68.2669 226.552C69.1988 227.017 69.7813 227.599 70.2472 228.297C70.5967 228.995 70.8297 230.275 70.8297 232.137V237.14C70.8297 238.536 70.8297 239.584 70.9462 240.282C71.0626 240.98 71.4121 241.678 71.7616 242.376H67.568C67.568 242.376 67.3351 241.678 67.1021 241.096C67.1021 240.864 66.9856 240.747 66.9856 240.631C66.2867 241.329 65.4713 241.911 64.6558 242.144C63.8404 242.493 62.9085 242.725 61.9766 242.725C60.3458 242.725 59.0645 242.26 58.1326 241.445C57.2007 240.515 56.7347 239.467 56.7347 238.071C56.7347 237.14 56.9677 236.326 57.4336 235.628C57.8996 234.929 58.482 234.348 59.2974 233.999C60.1128 233.649 61.1612 233.3 62.6756 233.068C64.6558 232.719 66.0537 232.37 66.8691 232.02V231.555C66.8691 230.741 66.6361 230.159 66.2867 229.81C65.8207 229.461 65.1218 229.228 63.9569 229.228C63.1415 229.228 62.5591 229.344 62.2096 229.693C61.7437 230.042 61.3942 230.508 61.1612 231.206H60.9283ZM66.6361 234.697C66.6361 234.697 65.2383 235.162 64.0734 235.395C62.9085 235.628 62.0931 235.86 61.7437 236.093C61.1612 236.442 60.9283 237.024 60.9283 237.606C60.9283 238.187 61.1612 238.769 61.6272 239.118C62.0931 239.584 62.6756 239.816 63.3745 239.816C64.1899 239.816 64.8888 239.584 65.5877 239.002C66.0537 238.653 66.4032 238.187 66.6361 237.606C66.6361 237.257 66.7526 236.558 66.7526 235.511V234.697H66.6361Z" fill="#00793F"/>
<path d="M89.7006 242.376H85.507V234.231C85.507 232.486 85.507 231.322 85.2741 230.857C85.1576 230.391 84.8081 229.926 84.3422 229.693C83.9927 229.344 83.5268 229.228 82.8278 229.228C82.1289 229.228 81.43 229.461 80.8476 229.81C80.2651 230.159 79.7992 230.741 79.5662 231.439C79.3332 232.137 79.2167 233.3 79.2167 235.162V242.376H74.9067V226.319H78.8673V228.646C80.2651 226.784 82.0124 225.854 84.2257 225.854C85.1576 225.854 85.973 226.086 86.7884 226.435C87.6038 226.784 88.1863 227.25 88.5357 227.715C88.8852 228.181 89.2346 228.879 89.3511 229.461C89.4676 230.159 89.5841 231.09 89.5841 232.37V242.376H89.7006Z" fill="#00793F"/>
<path fill-rule="evenodd" clip-rule="evenodd" d="M108.688 242.376H104.727V240.049C104.029 240.98 103.33 241.678 102.398 242.144C101.466 242.609 100.65 242.725 99.7185 242.725C97.8547 242.725 96.2239 242.027 94.9425 240.515C93.6612 239.002 92.9622 236.907 92.9622 234.231C92.9622 231.555 93.5447 229.461 94.826 228.064C96.1074 226.668 97.7382 225.854 99.7185 225.854C101.466 225.854 103.097 226.552 104.378 228.064V220.036H108.688V242.144V242.376ZM97.2723 233.999C97.2723 235.744 97.5052 236.907 97.9712 237.722C98.6701 238.886 99.602 239.351 100.767 239.351C101.699 239.351 102.514 238.886 103.213 238.071C103.912 237.257 104.261 235.977 104.261 234.348C104.261 232.486 103.912 231.206 103.213 230.391C102.514 229.577 101.699 229.112 100.65 229.112C99.602 229.112 98.7866 229.577 98.0877 230.391C97.3887 231.206 97.0393 232.37 97.0393 233.999H97.2723Z" fill="#00793F"/>
<path d="M127.209 242.376L119.288 220.268H124.181L129.772 236.675L135.247 220.268H139.907L131.985 242.376H127.209Z" fill="#00793F"/>
<path fill-rule="evenodd" clip-rule="evenodd" d="M143.751 231.206L139.907 230.508C140.372 228.995 141.071 227.832 142.12 227.017C143.168 226.319 144.799 225.854 146.896 225.854C148.76 225.854 150.157 226.086 151.089 226.552C152.021 227.017 152.72 227.599 153.07 228.297C153.419 228.995 153.652 230.275 153.652 232.137V237.14C153.652 238.536 153.652 239.584 153.769 240.282C153.885 240.98 154.118 241.678 154.584 242.376H150.39C150.39 242.376 150.157 241.678 150.041 241.096C150.041 240.864 149.924 240.747 149.924 240.631C149.226 241.329 148.41 241.911 147.595 242.144C146.779 242.493 145.847 242.725 144.916 242.725C143.285 242.725 142.003 242.26 141.071 241.445C140.14 240.515 139.674 239.467 139.674 238.071C139.674 237.14 139.907 236.326 140.372 235.628C140.838 234.929 141.421 234.348 142.12 233.999C142.935 233.649 144.1 233.3 145.498 233.068C147.478 232.719 148.876 232.37 149.575 232.02V231.555C149.575 230.741 149.342 230.159 148.993 229.81C148.527 229.461 147.828 229.228 146.663 229.228C145.964 229.228 145.265 229.344 144.916 229.693C144.45 230.042 144.1 230.508 143.867 231.206H143.751ZM149.458 234.697C149.458 234.697 148.061 235.162 146.896 235.395C145.731 235.628 144.915 235.86 144.566 236.093C143.984 236.442 143.751 237.024 143.751 237.606C143.751 238.187 143.984 238.769 144.45 239.118C144.916 239.584 145.498 239.816 146.197 239.816C147.012 239.816 147.711 239.584 148.41 239.002C148.876 238.653 149.226 238.187 149.458 237.606C149.458 237.257 149.575 236.558 149.575 235.511V234.697H149.458Z" fill="#00793F"/>
<path d="M157.729 242.376V220.268H162.039V242.376H157.729Z" fill="#00793F"/>
<path d="M166.349 242.376V220.268H170.659V242.376H166.349Z" fill="#00793F"/>
<path fill-rule="evenodd" clip-rule="evenodd" d="M184.288 237.257L188.482 237.955C187.899 239.467 187.084 240.747 185.919 241.562C184.754 242.376 183.24 242.725 181.492 242.725C178.697 242.725 176.6 241.795 175.319 240.049C174.27 238.536 173.688 236.791 173.688 234.464C173.688 231.788 174.387 229.693 175.785 228.181C177.182 226.668 178.93 225.854 181.027 225.854C183.473 225.854 185.337 226.668 186.734 228.181C188.132 229.81 188.715 232.137 188.715 235.395H177.998C177.998 236.675 178.347 237.606 179.046 238.304C179.745 239.002 180.561 239.351 181.492 239.351C182.191 239.351 182.657 239.118 183.123 238.769C183.589 238.42 183.939 237.838 184.172 237.024L184.288 237.257ZM184.521 232.951C184.521 231.671 184.172 230.741 183.589 230.159C183.007 229.461 182.191 229.228 181.376 229.228C180.561 229.228 179.745 229.577 179.046 230.275C178.464 230.973 178.114 231.904 178.114 233.068H184.521V232.951Z" fill="#00793F"/>
<path d="M190.229 226.319H194.772L198.616 237.722L202.344 226.319H206.77L201.062 241.795L200.014 244.587C199.664 245.518 199.315 246.216 198.966 246.798C198.616 247.263 198.267 247.729 197.801 247.961C197.335 248.311 196.869 248.543 196.17 248.66C195.587 248.892 194.772 248.892 193.957 248.892C193.141 248.892 192.326 248.892 191.51 248.66L191.161 245.285C191.743 245.402 192.442 245.518 192.908 245.518C193.84 245.518 194.656 245.285 195.121 244.587C195.587 244.005 195.937 243.307 196.286 242.376L190.113 226.319H190.229Z" fill="#00793F"/>
<path fill-rule="evenodd" clip-rule="evenodd" d="M53.1615 76.25H71.757L116.577 154.995L163.463 75.9325H180.31L135.649 154.995H97.8225L53.1615 76.25Z" fill="#00793F"/>
<path d="M155.039 71.3285C150.907 48.3084 131.358 40.2117 118.325 40.688C101.955 41.323 83.5182 54.5 83.9951 77.0438C84.9487 90.2208 89.3989 93.396 89.3989 93.396H126.431L116.736 110.859L110.537 98.3175H92.4187L116.577 142.294L155.357 76.25L100.048 76.5675C100.048 76.5675 100.365 58.469 118.961 57.0401C135.808 57.0401 138.51 71.646 138.51 71.646H155.039V71.3285Z" fill="#F7941D"/>
<path fill-rule="evenodd" clip-rule="evenodd" d="M134.378 22.5894C122.14 23.7007 119.756 32.115 118.325 35.9252C130.245 34.6551 132.629 29.4161 134.378 22.5894Z" fill="#00793F"/>
<path fill-rule="evenodd" clip-rule="evenodd" d="M100.524 22.5894C112.762 23.7007 115.146 32.115 116.577 35.9252C104.657 34.6551 102.273 29.4161 100.524 22.5894Z" fill="#00793F"/>
<path fill-rule="evenodd" clip-rule="evenodd" d="M117.848 11C124.524 21.1606 119.756 28.3047 117.531 31.9562C111.014 21.9544 113.557 16.7153 117.848 11Z" fill="#00793F"/>
<path d="M204.557 188.386C203.625 189.55 203.159 190.248 203.159 190.481V192.575H199.781V192.226C199.781 192.226 200.247 189.899 201.179 186.757C200.48 186.757 199.664 187.455 198.849 188.852C198.034 190.248 197.568 191.412 197.451 192.343C197.102 192.343 196.752 192.343 196.519 192.343H194.19C193.374 192.343 192.792 192.226 192.559 191.993C193.491 189.085 193.957 187.339 193.957 186.525C193.957 186.525 193.957 186.408 193.84 186.059C192.675 187.339 191.627 188.619 190.695 189.783C190.695 190.714 190.578 191.528 190.113 192.343H179.396C177.765 192.343 176.6 192.343 175.668 192.226C175.202 190.015 174.853 187.106 174.62 183.616C174.387 180.707 174.27 177.798 174.037 174.889L171.009 178.961C171.242 181.987 171.358 185.128 171.591 188.27C171.824 191.877 172.174 194.902 172.639 197.462H189.064C189.064 197.462 189.88 196.997 190.695 196.182C190.811 196.648 191.044 196.997 191.161 197.579H196.985C196.985 197.579 197.451 196.997 197.684 196.764C197.917 196.764 198.15 197.113 198.267 197.579H204.906C205.256 196.648 205.605 195.833 205.955 194.902C206.421 193.855 206.537 193.041 206.537 192.11V186.176C206.537 186.176 205.489 187.106 204.557 188.27V188.386Z" fill="#00793F"/>
<path d="M165.417 179.66C166.466 178.729 166.932 178.031 166.932 177.798C166.582 177.798 165.184 177.1 162.738 175.587C162.389 175.587 161.224 176.867 159.243 179.194C159.593 179.194 161.107 179.892 163.786 181.289C163.786 181.172 164.369 180.59 165.417 179.543V179.66Z" fill="#00793F"/>
<path d="M166.116 182.568C165.184 184.314 164.369 185.826 163.437 187.106C164.718 188.503 165.767 190.364 166.582 192.575H149.924C149.342 192.575 148.41 190.597 147.362 186.641C146.779 184.081 146.08 181.521 145.498 178.961C144.799 180.125 143.867 181.87 142.819 184.197C142.935 184.663 143.401 185.943 143.984 188.154C144.566 190.364 144.799 191.528 144.799 191.761V192.575H135.83C135.014 192.575 134.665 191.877 134.665 190.481C134.665 190.248 134.665 189.55 134.898 188.154C134.082 188.619 133.5 189.899 133.034 191.993C132.684 193.506 132.568 195.019 132.568 196.415C132.568 197.23 132.917 197.695 133.849 197.695H143.401C143.401 197.695 144.217 197.23 144.683 196.299C145.148 195.368 145.381 194.786 145.614 194.786C145.847 195.368 146.08 195.95 146.313 196.531C146.663 197.346 147.012 197.811 147.362 197.811H157.729H168.795C169.494 194.204 169.844 191.877 169.844 190.714C169.844 189.201 169.494 187.805 168.912 186.525C168.795 186.176 167.98 185.012 166.466 182.801L166.116 182.568Z" fill="#00793F"/>
<path d="M111.833 175.238C111.833 175.238 112.532 174.889 113.347 174.307C114.163 173.725 114.512 173.376 114.512 173.144C114.512 173.144 114.163 172.678 113.347 171.98C112.532 171.282 112.066 170.816 111.833 170.7C111.6 170.7 111.134 171.049 110.435 171.631C110.086 172.096 109.62 172.562 109.154 173.027C109.154 173.376 109.969 174.074 111.717 175.122L111.833 175.238Z" fill="#00793F"/>
<path d="M119.288 180.358C117.774 180.358 116.143 181.289 114.396 183.15C112.649 185.012 111.833 186.757 111.833 188.27C111.833 189.317 112.299 190.015 113.231 190.597C114.163 191.179 115.095 191.412 116.143 191.412C117.192 191.412 118.007 191.179 118.706 190.83C119.172 190.597 119.754 190.015 120.686 189.085C121.152 189.55 121.385 190.714 121.735 192.459H98.9031C97.2723 192.459 96.1074 192.459 95.1755 192.343C94.7095 190.132 94.3601 187.223 94.1271 183.732C93.8941 180.823 93.7776 177.914 93.5447 175.005L90.516 179.078C90.749 182.103 90.8655 185.245 91.0984 188.386C91.3314 191.993 91.6809 195.019 92.1468 197.579H123.715C123.715 197.579 124.297 196.066 124.53 194.437C124.763 193.041 124.88 191.993 124.88 191.179C124.88 189.201 124.414 186.99 123.598 184.663C122.433 181.754 121.152 180.241 119.521 180.241L119.288 180.358ZM118.007 186.874H117.308C117.308 186.874 116.027 186.525 115.328 185.71C116.027 184.896 116.493 184.43 116.959 184.43C117.774 184.43 118.706 185.128 119.521 186.641C118.822 186.757 118.356 186.874 118.123 186.874H118.007Z" fill="#00793F"/>
<path d="M109.736 180.358C110.435 179.66 111.134 178.961 111.833 178.38C112.765 178.845 114.046 179.543 115.91 180.474C116.143 180.474 116.609 179.892 117.425 179.078C117.89 178.496 118.356 177.914 118.939 177.332L114.745 175.122C113.93 175.82 113.115 176.518 112.299 177.216C111.833 177.216 110.668 176.518 108.572 175.122L105.659 178.263C105.659 178.263 106.591 178.961 107.64 179.543C108.572 180.009 109.27 180.358 109.736 180.474V180.358Z" fill="#00793F"/>
<path d="M87.0214 179.194C86.0895 178.612 85.1576 178.031 84.2257 177.449C83.5268 176.867 83.2938 176.052 83.2938 174.889C82.5949 175.238 81.43 177.1 79.6827 180.358C79.9157 180.59 80.3816 181.056 81.197 181.638C81.5465 183.267 81.8959 185.012 82.2454 186.757C82.7114 188.852 82.8278 190.597 82.7114 191.993V192.692H49.163C48.5806 193.39 48.1147 194.204 47.5322 195.019C46.9498 195.95 46.4838 196.88 46.3674 197.462C47.7652 197.579 49.163 197.695 50.5609 197.811C52.1917 198.16 53.3566 198.742 54.0555 199.906C53.3566 200.255 51.9587 200.604 49.862 200.837C47.9982 201.069 46.6003 201.186 45.4355 201.186C43.9211 201.186 42.6398 200.837 41.3584 200.022C39.8441 199.091 39.1452 198.044 39.1452 196.648C39.1452 194.321 40.543 191.644 43.2222 188.735C41.5914 189.55 39.9606 191.179 38.4462 193.506C36.9319 195.833 36.1165 198.044 36.1165 199.789C36.1165 201.884 36.9319 203.396 38.5627 204.444C39.9606 205.258 41.7079 205.724 43.9211 205.724C45.2025 205.724 46.9498 205.491 48.9301 205.142C51.1433 204.676 52.6577 204.211 53.5896 203.513C54.405 203.047 55.1039 202.117 55.9193 200.953C56.5017 199.906 57.0842 198.859 57.6666 197.811H83.1773C84.1092 197.811 84.8081 196.997 85.2741 195.251C85.74 193.739 85.8565 192.459 85.74 191.295C85.6235 189.899 85.3906 187.688 85.1576 184.896L88.8852 180.358C88.3027 180.125 87.6038 179.776 86.9049 179.31L87.0214 179.194Z" fill="#00793F"/>
</svg>
